<svg xmlns="http://www.w3.org/2000/svg" height="942" width="960.0" font-size="16" font-family="sans-serif" stroke-width="2">
<g transform="translate(10.0 0)">
<g fill="hsl(0, 100%, 40%)">
<text y="22">Prelude.putStrLn</text>
<text y="22" x="225.35423609690375" text-anchor="end">19.7 ms</text>
</g>
<g>
<title>19.7 ms ± 1.1 ms</title>
<rect y="28" rx="5" height="22" width="225.35423609690375" fill="hsl(0, 100%, 80%)" stroke="hsl(0, 100%, 55%)" />
<g stroke="hsl(0, 100%, 40%)"><line x1="212.46578120442206" x2="238.24269098938544" y1="39" y2="39" />
<line x1="212.46578120442206" x2="212.46578120442206" y1="33" y2="45" />
<line x1="238.24269098938544" x2="238.24269098938544" y1="33" y2="45" />
</g>
</g>
<g fill="hsl(21, 100%, 40%)">
<text y="77">Text.putStrLn</text>
<text y="77" x="229.99470105868815" text-anchor="end">20.1 ms</text>
</g>
<g>
<title>20.1 ms ± 839 μs</title>
<rect y="83" rx="5" height="22" width="229.99470105868815" fill="hsl(21, 100%, 80%)" stroke="hsl(21, 100%, 55%)" />
<g stroke="hsl(21, 100%, 40%)"><line x1="220.4120612516724" x2="239.5773408657039" y1="94" y2="94" />
<line x1="220.4120612516724" x2="220.4120612516724" y1="88" y2="100" />
<line x1="239.5773408657039" x2="239.5773408657039" y1="88" y2="100" />
</g>
</g>
<text fill="hsl(42, 100%, 40%)" y="132">ByteString.putStrLn 14.8 ms</text>
<g>
<title>14.8 ms ± 1.4 ms</title>
<rect y="138" rx="5" height="22" width="169.08291612971664" fill="hsl(42, 100%, 80%)" stroke="hsl(42, 100%, 55%)" />
<g stroke="hsl(42, 100%, 40%)"><line x1="153.07674577832606" x2="185.08908648110722" y1="149" y2="149" />
<line x1="153.07674577832606" x2="153.07674577832606" y1="143" y2="155" />
<line x1="185.08908648110722" x2="185.08908648110722" y1="143" y2="155" />
</g>
</g>
<text fill="hsl(63, 100%, 40%)" y="187">mempty 2.58 μs</text>
<g>
<title>2.58 μs ± 189 ns</title>
<rect y="193" rx="5" height="22" width="0.029489364679201227" fill="hsl(63, 100%, 80%)" stroke="hsl(63, 100%, 55%)" />
<g stroke="hsl(63, 100%, 40%)"><line x1="0.0273268089849631" x2="0.031651920373439356" y1="204" y2="204" />
<line x1="0.0273268089849631" x2="0.0273268089849631" y1="198" y2="210" />
<line x1="0.031651920373439356" x2="0.031651920373439356" y1="198" y2="210" />
</g>
</g>
<g fill="hsl(84, 100%, 40%)">
<text y="242">logStringStdout</text>
<text y="242" x="227.21568792129509" text-anchor="end">19.9 ms</text>
</g>
<g>
<title>19.9 ms ± 1.3 ms</title>
<rect y="248" rx="5" height="22" width="227.21568792129509" fill="hsl(84, 100%, 80%)" stroke="hsl(84, 100%, 55%)" />
<g stroke="hsl(84, 100%, 40%)"><line x1="211.85977368087129" x2="242.57160216171889" y1="259" y2="259" />
<line x1="211.85977368087129" x2="211.85977368087129" y1="253" y2="265" />
<line x1="242.57160216171889" x2="242.57160216171889" y1="253" y2="265" />
</g>
</g>
<g fill="hsl(105, 100%, 40%)">
<text y="297">logPrint</text>
<text y="297" x="225.5711164579426" text-anchor="end">19.7 ms</text>
</g>
<g>
<title>19.7 ms ± 1.7 ms</title>
<rect y="303" rx="5" height="22" width="225.5711164579426" fill="hsl(105, 100%, 80%)" stroke="hsl(105, 100%, 55%)" />
<g stroke="hsl(105, 100%, 40%)"><line x1="205.95594242607643" x2="245.18629048980875" y1="314" y2="314" />
<line x1="205.95594242607643" x2="205.95594242607643" y1="308" y2="320" />
<line x1="245.18629048980875" x2="245.18629048980875" y1="308" y2="320" />
</g>
</g>
<g fill="hsl(127, 100%, 40%)">
<text y="352">logTextStdout</text>
<text y="352" x="228.44820760120862" text-anchor="end">20.0 ms</text>
</g>
<g>
<title>20.0 ms ± 1.5 ms</title>
<rect y="358" rx="5" height="22" width="228.44820760120862" fill="hsl(127, 100%, 80%)" stroke="hsl(127, 100%, 55%)" />
<g stroke="hsl(127, 100%, 40%)"><line x1="211.59173613625518" x2="245.30467906616207" y1="369" y2="369" />
<line x1="211.59173613625518" x2="211.59173613625518" y1="363" y2="375" />
<line x1="245.30467906616207" x2="245.30467906616207" y1="363" y2="375" />
</g>
</g>
<text fill="hsl(148, 100%, 40%)" y="407">logByteStringStdout 15.1 ms</text>
<g>
<title>15.1 ms ± 1.4 ms</title>
<rect y="413" rx="5" height="22" width="172.88118626650126" fill="hsl(148, 100%, 80%)" stroke="hsl(148, 100%, 55%)" />
<g stroke="hsl(148, 100%, 40%)"><line x1="156.3644661790251" x2="189.39790635397742" y1="424" y2="424" />
<line x1="156.3644661790251" x2="156.3644661790251" y1="418" y2="430" />
<line x1="189.39790635397742" x2="189.39790635397742" y1="418" y2="430" />
</g>
</g>
<text fill="hsl(169, 100%, 40%)" y="462">logByteStringStderr 15.3 ms</text>
<g>
<title>15.3 ms ± 1.4 ms</title>
<rect y="468" rx="5" height="22" width="174.54302830648493" fill="hsl(169, 100%, 80%)" stroke="hsl(169, 100%, 55%)" />
<g stroke="hsl(169, 100%, 40%)"><line x1="158.4418822965884" x2="190.64417431638145" y1="479" y2="479" />
<line x1="158.4418822965884" x2="158.4418822965884" y1="473" y2="485" />
<line x1="190.64417431638145" x2="190.64417431638145" y1="473" y2="485" />
</g>
</g>
<g fill="hsl(190, 100%, 40%)">
<text y="517">ByteString > (stdout &lt;> stderr)</text>
<text y="517" x="350.34765937168055" text-anchor="end">30.7 ms</text>
</g>
<g>
<title>30.7 ms ± 2.3 ms</title>
<rect y="523" rx="5" height="22" width="350.34765937168055" fill="hsl(190, 100%, 80%)" stroke="hsl(190, 100%, 55%)" />
<g stroke="hsl(190, 100%, 40%)"><line x1="323.53348539622914" x2="377.16183334713196" y1="534" y2="534" />
<line x1="323.53348539622914" x2="323.53348539622914" y1="528" y2="540" />
<line x1="377.16183334713196" x2="377.16183334713196" y1="528" y2="540" />
</g>
</g>
<text fill="hsl(211, 100%, 40%)" y="572">Message > format > stdout 22.6 ms</text>
<g>
<title>22.6 ms ± 2.2 ms</title>
<rect y="578" rx="5" height="22" width="257.6002807543518" fill="hsl(211, 100%, 80%)" stroke="hsl(211, 100%, 55%)" />
<g stroke="hsl(211, 100%, 40%)"><line x1="232.9118953484041" x2="282.2886661602995" y1="589" y2="589" />
<line x1="232.9118953484041" x2="232.9118953484041" y1="583" y2="595" />
<line x1="282.2886661602995" x2="282.2886661602995" y1="583" y2="595" />
</g>
</g>
<text fill="hsl(232, 100%, 40%)" y="627">Message > format > ByteString > stdout 15.9 ms</text>
<g>
<title>15.9 ms ± 588 μs</title>
<rect y="633" rx="5" height="22" width="182.05787336418933" fill="hsl(232, 100%, 80%)" stroke="hsl(232, 100%, 55%)" />
<g stroke="hsl(232, 100%, 40%)"><line x1="175.33922127828203" x2="188.77652545009664" y1="644" y2="644" />
<line x1="175.33922127828203" x2="175.33922127828203" y1="638" y2="650" />
<line x1="188.77652545009664" x2="188.77652545009664" y1="638" y2="650" />
</g>
</g>
<text fill="hsl(254, 100%, 40%)" y="682">Message{callstack} > format > stdout 23.1 ms</text>
<g>
<title>23.1 ms ± 2.0 ms</title>
<rect y="688" rx="5" height="22" width="263.81632139575163" fill="hsl(254, 100%, 80%)" stroke="hsl(254, 100%, 55%)" />
<g stroke="hsl(254, 100%, 40%)"><line x1="241.46555404553538" x2="286.1670887459679" y1="699" y2="699" />
<line x1="241.46555404553538" x2="241.46555404553538" y1="693" y2="705" />
<line x1="286.1670887459679" x2="286.1670887459679" y1="693" y2="705" />
</g>
</g>
<text fill="hsl(275, 100%, 40%)" y="737">Message{callstack:5} > format > stdout 22.0 ms</text>
<g>
<title>22.0 ms ± 1.1 ms</title>
<rect y="743" rx="5" height="22" width="251.28918012471118" fill="hsl(275, 100%, 80%)" stroke="hsl(275, 100%, 55%)" />
<g stroke="hsl(275, 100%, 40%)"><line x1="239.06800423050072" x2="263.51035601892164" y1="754" y2="754" />
<line x1="239.06800423050072" x2="239.06800423050072" y1="748" y2="760" />
<line x1="263.51035601892164" x2="263.51035601892164" y1="748" y2="760" />
</g>
</g>
<text fill="hsl(296, 100%, 40%)" y="792">Message{callstack:50} > format > stdout 21.5 ms</text>
<g>
<title>21.5 ms ± 2.1 ms</title>
<rect y="798" rx="5" height="22" width="246.0605886499794" fill="hsl(296, 100%, 80%)" stroke="hsl(296, 100%, 55%)" />
<g stroke="hsl(296, 100%, 40%)"><line x1="222.52717431410582" x2="269.59400298585297" y1="809" y2="809" />
<line x1="222.52717431410582" x2="222.52717431410582" y1="803" y2="815" />
<line x1="269.59400298585297" x2="269.59400298585297" y1="803" y2="815" />
</g>
</g>
<g fill="hsl(317, 100%, 40%)">
<text y="847">Message{Time,ThreadId} > format > stdout</text>
<text y="847" x="891.9167126071684" text-anchor="end">78.1 ms</text>
</g>
<g>
<title>78.1 ms ± 4.2 ms</title>
<rect y="853" rx="5" height="22" width="891.9167126071684" fill="hsl(317, 100%, 80%)" stroke="hsl(317, 100%, 55%)" />
<g stroke="hsl(317, 100%, 40%)"><line x1="843.8334252143368" x2="940.0" y1="864" y2="864" />
<line x1="843.8334252143368" x2="843.8334252143368" y1="858" y2="870" />
<line x1="940.0" x2="940.0" y1="858" y2="870" />
</g>
</g>
<g fill="hsl(338, 100%, 40%)">
<text y="902">Message{Time,ThreadId} > format > ByteString > stdout</text>
<text y="902" x="777.7852590066698" text-anchor="end">68.1 ms</text>
</g>
<g>
<title>68.1 ms ± 2.0 ms</title>
<rect y="908" rx="5" height="22" width="777.7852590066698" fill="hsl(338, 100%, 80%)" stroke="hsl(338, 100%, 55%)" />
<g stroke="hsl(338, 100%, 40%)"><line x1="754.765297117908" x2="800.8052208954316" y1="919" y2="919" />
<line x1="754.765297117908" x2="754.765297117908" y1="913" y2="925" />
<line x1="800.8052208954316" x2="800.8052208954316" y1="913" y2="925" />
</g>
</g>
</g>
</svg>
