<svg xmlns="http://www.w3.org/2000/svg" height="942" width="960.0" font-size="16" font-family="sans-serif" stroke-width="2">
<g transform="translate(10.0 0)">
<text fill="hsl(0, 100%, 40%)" y="22">Prelude.putStrLn 12.7 ms</text>
<g>
<title>12.7 ms ± 1.1 ms</title>
<rect y="28" rx="5" height="22" width="119.45958948057996" fill="hsl(0, 100%, 80%)" stroke="hsl(0, 100%, 55%)" />
<g stroke="hsl(0, 100%, 40%)"><line x1="109.1613086031124" x2="129.75787035804754" y1="39" y2="39" />
<line x1="109.1613086031124" x2="109.1613086031124" y1="33" y2="45" />
<line x1="129.75787035804754" x2="129.75787035804754" y1="33" y2="45" />
</g>
</g>
<text fill="hsl(21, 100%, 40%)" y="77">Text.putStrLn 12.8 ms</text>
<g>
<title>12.8 ms ± 635 μs</title>
<rect y="83" rx="5" height="22" width="120.88455043560353" fill="hsl(21, 100%, 80%)" stroke="hsl(21, 100%, 55%)" />
<g stroke="hsl(21, 100%, 40%)"><line x1="114.89438668808077" x2="126.87471418312629" y1="94" y2="94" />
<line x1="114.89438668808077" x2="114.89438668808077" y1="88" y2="100" />
<line x1="126.87471418312629" x2="126.87471418312629" y1="88" y2="100" />
</g>
</g>
<text fill="hsl(42, 100%, 40%)" y="132">ByteString.putStrLn 10.0 ms</text>
<g>
<title>10.0 ms ± 463 μs</title>
<rect y="138" rx="5" height="22" width="94.7338187724213" fill="hsl(42, 100%, 80%)" stroke="hsl(42, 100%, 55%)" />
<g stroke="hsl(42, 100%, 40%)"><line x1="90.36192242538426" x2="99.10571511945834" y1="149" y2="149" />
<line x1="90.36192242538426" x2="90.36192242538426" y1="143" y2="155" />
<line x1="99.10571511945834" x2="99.10571511945834" y1="143" y2="155" />
</g>
</g>
<text fill="hsl(63, 100%, 40%)" y="187">mempty 2.67 μs</text>
<g>
<title>2.67 μs ± 215 ns</title>
<rect y="193" rx="5" height="22" width="0.025189829768343396" fill="hsl(63, 100%, 80%)" stroke="hsl(63, 100%, 55%)" />
<g stroke="hsl(63, 100%, 40%)"><line x1="0.02315986206867445" x2="0.02721979746801234" y1="204" y2="204" />
<line x1="0.02315986206867445" x2="0.02315986206867445" y1="198" y2="210" />
<line x1="0.02721979746801234" x2="0.02721979746801234" y1="198" y2="210" />
</g>
</g>
<text fill="hsl(84, 100%, 40%)" y="242">logStringStdout 12.7 ms</text>
<g>
<title>12.7 ms ± 867 μs</title>
<rect y="248" rx="5" height="22" width="119.4871029316818" fill="hsl(84, 100%, 80%)" stroke="hsl(84, 100%, 55%)" />
<g stroke="hsl(84, 100%, 40%)"><line x1="111.29937478231426" x2="127.67483108104935" y1="259" y2="259" />
<line x1="111.29937478231426" x2="111.29937478231426" y1="253" y2="265" />
<line x1="127.67483108104935" x2="127.67483108104935" y1="253" y2="265" />
</g>
</g>
<text fill="hsl(105, 100%, 40%)" y="297">logPrint 11.9 ms</text>
<g>
<title>11.9 ms ± 972 μs</title>
<rect y="303" rx="5" height="22" width="112.38962316001714" fill="hsl(105, 100%, 80%)" stroke="hsl(105, 100%, 55%)" />
<g stroke="hsl(105, 100%, 40%)"><line x1="103.21307254605205" x2="121.56617377398223" y1="314" y2="314" />
<line x1="103.21307254605205" x2="103.21307254605205" y1="308" y2="320" />
<line x1="121.56617377398223" x2="121.56617377398223" y1="308" y2="320" />
</g>
</g>
<text fill="hsl(127, 100%, 40%)" y="352">logTextStdout 12.1 ms</text>
<g>
<title>12.1 ms ± 724 μs</title>
<rect y="358" rx="5" height="22" width="114.65648177750079" fill="hsl(127, 100%, 80%)" stroke="hsl(127, 100%, 55%)" />
<g stroke="hsl(127, 100%, 40%)"><line x1="107.82221006962399" x2="121.49075348537758" y1="369" y2="369" />
<line x1="107.82221006962399" x2="107.82221006962399" y1="363" y2="375" />
<line x1="121.49075348537758" x2="121.49075348537758" y1="363" y2="375" />
</g>
</g>
<text fill="hsl(148, 100%, 40%)" y="407">logByteStringStdout 10.2 ms</text>
<g>
<title>10.2 ms ± 582 μs</title>
<rect y="413" rx="5" height="22" width="96.22263259627779" fill="hsl(148, 100%, 80%)" stroke="hsl(148, 100%, 55%)" />
<g stroke="hsl(148, 100%, 40%)"><line x1="90.73229536705543" x2="101.71296982550015" y1="424" y2="424" />
<line x1="90.73229536705543" x2="90.73229536705543" y1="418" y2="430" />
<line x1="101.71296982550015" x2="101.71296982550015" y1="418" y2="430" />
</g>
</g>
<text fill="hsl(169, 100%, 40%)" y="462">logByteStringStderr 10.1 ms</text>
<g>
<title>10.1 ms ± 923 μs</title>
<rect y="468" rx="5" height="22" width="95.79093433455273" fill="hsl(169, 100%, 80%)" stroke="hsl(169, 100%, 55%)" />
<g stroke="hsl(169, 100%, 40%)"><line x1="87.076394567678" x2="104.50547410142747" y1="479" y2="479" />
<line x1="87.076394567678" x2="87.076394567678" y1="473" y2="485" />
<line x1="104.50547410142747" x2="104.50547410142747" y1="473" y2="485" />
</g>
</g>
<text fill="hsl(190, 100%, 40%)" y="517">ByteString > (stdout &lt;> stderr) 20.3 ms</text>
<g>
<title>20.3 ms ± 1.4 ms</title>
<rect y="523" rx="5" height="22" width="191.59479618724643" fill="hsl(190, 100%, 80%)" stroke="hsl(190, 100%, 55%)" />
<g stroke="hsl(190, 100%, 40%)"><line x1="178.36288994734957" x2="204.8267024271433" y1="534" y2="534" />
<line x1="178.36288994734957" x2="178.36288994734957" y1="528" y2="540" />
<line x1="204.8267024271433" x2="204.8267024271433" y1="528" y2="540" />
</g>
</g>
<text fill="hsl(211, 100%, 40%)" y="572">Message > format > stdout 12.4 ms</text>
<g>
<title>12.4 ms ± 973 μs</title>
<rect y="578" rx="5" height="22" width="116.96139568212286" fill="hsl(211, 100%, 80%)" stroke="hsl(211, 100%, 55%)" />
<g stroke="hsl(211, 100%, 40%)"><line x1="107.77966564140213" x2="126.14312572284358" y1="589" y2="589" />
<line x1="107.77966564140213" x2="107.77966564140213" y1="583" y2="595" />
<line x1="126.14312572284358" x2="126.14312572284358" y1="583" y2="595" />
</g>
</g>
<text fill="hsl(232, 100%, 40%)" y="627">Message > format > ByteString > stdout 10.1 ms</text>
<g>
<title>10.1 ms ± 578 μs</title>
<rect y="633" rx="5" height="22" width="95.06091443075708" fill="hsl(232, 100%, 80%)" stroke="hsl(232, 100%, 55%)" />
<g stroke="hsl(232, 100%, 40%)"><line x1="89.60783037090766" x2="100.5139984906065" y1="644" y2="644" />
<line x1="89.60783037090766" x2="89.60783037090766" y1="638" y2="650" />
<line x1="100.5139984906065" x2="100.5139984906065" y1="638" y2="650" />
</g>
</g>
<text fill="hsl(254, 100%, 40%)" y="682">Message{callstack} > format > stdout 11.8 ms</text>
<g>
<title>11.8 ms ± 1.1 ms</title>
<rect y="688" rx="5" height="22" width="111.18950141192911" fill="hsl(254, 100%, 80%)" stroke="hsl(254, 100%, 55%)" />
<g stroke="hsl(254, 100%, 40%)"><line x1="100.74143741615441" x2="121.63756540770382" y1="699" y2="699" />
<line x1="100.74143741615441" x2="100.74143741615441" y1="693" y2="705" />
<line x1="121.63756540770382" x2="121.63756540770382" y1="693" y2="705" />
</g>
</g>
<text fill="hsl(275, 100%, 40%)" y="737">Message{callstack:5} > format > stdout 12.1 ms</text>
<g>
<title>12.1 ms ± 938 μs</title>
<rect y="743" rx="5" height="22" width="114.44110258589748" fill="hsl(275, 100%, 80%)" stroke="hsl(275, 100%, 55%)" />
<g stroke="hsl(275, 100%, 40%)"><line x1="105.59128798928089" x2="123.29091718251408" y1="754" y2="754" />
<line x1="105.59128798928089" x2="105.59128798928089" y1="748" y2="760" />
<line x1="123.29091718251408" x2="123.29091718251408" y1="748" y2="760" />
</g>
</g>
<text fill="hsl(296, 100%, 40%)" y="792">Message{callstack:50} > format > stdout 13.1 ms</text>
<g>
<title>13.1 ms ± 885 μs</title>
<rect y="798" rx="5" height="22" width="124.10970747263126" fill="hsl(296, 100%, 80%)" stroke="hsl(296, 100%, 55%)" />
<g stroke="hsl(296, 100%, 40%)"><line x1="115.75240086729202" x2="132.46701407797048" y1="809" y2="809" />
<line x1="115.75240086729202" x2="115.75240086729202" y1="803" y2="815" />
<line x1="132.46701407797048" x2="132.46701407797048" y1="803" y2="815" />
</g>
</g>
<g fill="hsl(317, 100%, 40%)">
<text y="847">Message{Time,ThreadId} > format > stdout</text>
<text y="847" x="910.383606170336" text-anchor="end">96.5 ms</text>
</g>
<g>
<title>96.5 ms ± 3.1 ms</title>
<rect y="853" rx="5" height="22" width="910.383606170336" fill="hsl(317, 100%, 80%)" stroke="hsl(317, 100%, 55%)" />
<g stroke="hsl(317, 100%, 40%)"><line x1="880.7672123406719" x2="940.0" y1="864" y2="864" />
<line x1="880.7672123406719" x2="880.7672123406719" y1="858" y2="870" />
<line x1="940.0" x2="940.0" y1="858" y2="870" />
</g>
</g>
<g fill="hsl(338, 100%, 40%)">
<text y="902">Message{Time,ThreadId} > format > ByteString > stdout</text>
<text y="902" x="838.064681647998" text-anchor="end">88.8 ms</text>
</g>
<g>
<title>88.8 ms ± 4.5 ms</title>
<rect y="908" rx="5" height="22" width="838.064681647998" fill="hsl(338, 100%, 80%)" stroke="hsl(338, 100%, 55%)" />
<g stroke="hsl(338, 100%, 40%)"><line x1="795.4444785935676" x2="880.6848847024283" y1="919" y2="919" />
<line x1="795.4444785935676" x2="795.4444785935676" y1="913" y2="925" />
<line x1="880.6848847024283" x2="880.6848847024283" y1="913" y2="925" />
</g>
</g>
</g>
</svg>
