<svg xmlns="http://www.w3.org/2000/svg" height="942" width="960.0" font-size="16" font-family="sans-serif" stroke-width="2">
<g transform="translate(10.0 0)">
<g fill="hsl(0, 100%, 40%)">
<text y="22">Prelude.putStrLn</text>
<text y="22" x="298.3597966615259" text-anchor="end">15.7 ms</text>
</g>
<g>
<title>15.7 ms ± 1.4 ms</title>
<rect y="28" rx="5" height="22" width="298.3597966615259" fill="hsl(0, 100%, 80%)" stroke="hsl(0, 100%, 55%)" />
<g stroke="hsl(0, 100%, 40%)"><line x1="271.77291015209386" x2="324.9466831709579" y1="39" y2="39" />
<line x1="271.77291015209386" x2="271.77291015209386" y1="33" y2="45" />
<line x1="324.9466831709579" x2="324.9466831709579" y1="33" y2="45" />
</g>
</g>
<g fill="hsl(21, 100%, 40%)">
<text y="77">Text.putStrLn</text>
<text y="77" x="293.6494602528124" text-anchor="end">15.4 ms</text>
</g>
<g>
<title>15.4 ms ± 1.2 ms</title>
<rect y="83" rx="5" height="22" width="293.6494602528124" fill="hsl(21, 100%, 80%)" stroke="hsl(21, 100%, 55%)" />
<g stroke="hsl(21, 100%, 40%)"><line x1="271.68657440599463" x2="315.61234609963014" y1="94" y2="94" />
<line x1="271.68657440599463" x2="271.68657440599463" y1="88" y2="100" />
<line x1="315.61234609963014" x2="315.61234609963014" y1="88" y2="100" />
</g>
</g>
<g fill="hsl(42, 100%, 40%)">
<text y="132">ByteString.putStrLn</text>
<text y="132" x="232.66160842576068" text-anchor="end">12.2 ms</text>
</g>
<g>
<title>12.2 ms ± 1.1 ms</title>
<rect y="138" rx="5" height="22" width="232.66160842576068" fill="hsl(42, 100%, 80%)" stroke="hsl(42, 100%, 55%)" />
<g stroke="hsl(42, 100%, 40%)"><line x1="211.89395157954698" x2="253.42926527197437" y1="149" y2="149" />
<line x1="211.89395157954698" x2="211.89395157954698" y1="143" y2="155" />
<line x1="253.42926527197437" x2="253.42926527197437" y1="143" y2="155" />
</g>
</g>
<text fill="hsl(63, 100%, 40%)" y="187">mempty 4.50 μs</text>
<g>
<title>4.50 μs ± 225 ns</title>
<rect y="193" rx="5" height="22" width="0.08578809883201048" fill="hsl(63, 100%, 80%)" stroke="hsl(63, 100%, 55%)" />
<g stroke="hsl(63, 100%, 40%)"><line x1="0.08149441170623833" x2="0.09008178595778263" y1="204" y2="204" />
<line x1="0.08149441170623833" x2="0.08149441170623833" y1="198" y2="210" />
<line x1="0.09008178595778263" x2="0.09008178595778263" y1="198" y2="210" />
</g>
</g>
<g fill="hsl(84, 100%, 40%)">
<text y="242">logStringStdout</text>
<text y="242" x="332.28179323294324" text-anchor="end">17.4 ms</text>
</g>
<g>
<title>17.4 ms ± 1.5 ms</title>
<rect y="248" rx="5" height="22" width="332.28179323294324" fill="hsl(84, 100%, 80%)" stroke="hsl(84, 100%, 55%)" />
<g stroke="hsl(84, 100%, 40%)"><line x1="304.37295089594" x2="360.1906355699465" y1="259" y2="259" />
<line x1="304.37295089594" x2="304.37295089594" y1="253" y2="265" />
<line x1="360.1906355699465" x2="360.1906355699465" y1="253" y2="265" />
</g>
</g>
<g fill="hsl(105, 100%, 40%)">
<text y="297">logPrint</text>
<text y="297" x="334.5291333831331" text-anchor="end">17.6 ms</text>
</g>
<g>
<title>17.6 ms ± 1.7 ms</title>
<rect y="303" rx="5" height="22" width="334.5291333831331" fill="hsl(105, 100%, 80%)" stroke="hsl(105, 100%, 55%)" />
<g stroke="hsl(105, 100%, 40%)"><line x1="302.8769050562421" x2="366.18136171002413" y1="314" y2="314" />
<line x1="302.8769050562421" x2="302.8769050562421" y1="308" y2="320" />
<line x1="366.18136171002413" x2="366.18136171002413" y1="308" y2="320" />
</g>
</g>
<g fill="hsl(127, 100%, 40%)">
<text y="352">logTextStdout</text>
<text y="352" x="318.466913848889" text-anchor="end">16.7 ms</text>
</g>
<g>
<title>16.7 ms ± 1.4 ms</title>
<rect y="358" rx="5" height="22" width="318.466913848889" fill="hsl(127, 100%, 80%)" stroke="hsl(127, 100%, 55%)" />
<g stroke="hsl(127, 100%, 40%)"><line x1="292.1502381694233" x2="344.78358952835475" y1="369" y2="369" />
<line x1="292.1502381694233" x2="292.1502381694233" y1="363" y2="375" />
<line x1="344.78358952835475" x2="344.78358952835475" y1="363" y2="375" />
</g>
</g>
<g fill="hsl(148, 100%, 40%)">
<text y="407">logByteStringStdout</text>
<text y="407" x="226.18616013890065" text-anchor="end">11.9 ms</text>
</g>
<g>
<title>11.9 ms ± 868 μs</title>
<rect y="413" rx="5" height="22" width="226.18616013890065" fill="hsl(148, 100%, 80%)" stroke="hsl(148, 100%, 55%)" />
<g stroke="hsl(148, 100%, 40%)"><line x1="209.66031354265354" x2="242.71200673514775" y1="424" y2="424" />
<line x1="209.66031354265354" x2="209.66031354265354" y1="418" y2="430" />
<line x1="242.71200673514775" x2="242.71200673514775" y1="418" y2="430" />
</g>
</g>
<text fill="hsl(169, 100%, 40%)" y="462">logByteStringStderr 11.1 ms</text>
<g>
<title>11.1 ms ± 865 μs</title>
<rect y="468" rx="5" height="22" width="211.54107789293127" fill="hsl(169, 100%, 80%)" stroke="hsl(169, 100%, 55%)" />
<g stroke="hsl(169, 100%, 40%)"><line x1="195.0621515419305" x2="228.02000424393205" y1="479" y2="479" />
<line x1="195.0621515419305" x2="195.0621515419305" y1="473" y2="485" />
<line x1="228.02000424393205" x2="228.02000424393205" y1="473" y2="485" />
</g>
</g>
<g fill="hsl(190, 100%, 40%)">
<text y="517">ByteString > (stdout &lt;> stderr)</text>
<text y="517" x="463.75378945846563" text-anchor="end">24.4 ms</text>
</g>
<g>
<title>24.4 ms ± 2.0 ms</title>
<rect y="523" rx="5" height="22" width="463.75378945846563" fill="hsl(190, 100%, 80%)" stroke="hsl(190, 100%, 55%)" />
<g stroke="hsl(190, 100%, 40%)"><line x1="426.27242830088966" x2="501.2351506160416" y1="534" y2="534" />
<line x1="426.27242830088966" x2="426.27242830088966" y1="528" y2="540" />
<line x1="501.2351506160416" x2="501.2351506160416" y1="528" y2="540" />
</g>
</g>
<g fill="hsl(211, 100%, 40%)">
<text y="572">Message > format > stdout</text>
<text y="572" x="369.1223101887891" text-anchor="end">19.4 ms</text>
</g>
<g>
<title>19.4 ms ± 683 μs</title>
<rect y="578" rx="5" height="22" width="369.1223101887891" fill="hsl(211, 100%, 80%)" stroke="hsl(211, 100%, 55%)" />
<g stroke="hsl(211, 100%, 40%)"><line x1="356.1203000478763" x2="382.12432032970185" y1="589" y2="589" />
<line x1="356.1203000478763" x2="356.1203000478763" y1="583" y2="595" />
<line x1="382.12432032970185" x2="382.12432032970185" y1="583" y2="595" />
</g>
</g>
<text fill="hsl(232, 100%, 40%)" y="627">Message > format > ByteString > stdout 15.5 ms</text>
<g>
<title>15.5 ms ± 1.4 ms</title>
<rect y="633" rx="5" height="22" width="295.94537276956004" fill="hsl(232, 100%, 80%)" stroke="hsl(232, 100%, 55%)" />
<g stroke="hsl(232, 100%, 40%)"><line x1="269.19974183634906" x2="322.691003702771" y1="644" y2="644" />
<line x1="269.19974183634906" x2="269.19974183634906" y1="638" y2="650" />
<line x1="322.691003702771" x2="322.691003702771" y1="638" y2="650" />
</g>
</g>
<g fill="hsl(254, 100%, 40%)">
<text y="682">Message{callstack} > format > stdout</text>
<text y="682" x="368.37529425354353" text-anchor="end">19.3 ms</text>
</g>
<g>
<title>19.3 ms ± 1.7 ms</title>
<rect y="688" rx="5" height="22" width="368.37529425354353" fill="hsl(254, 100%, 80%)" stroke="hsl(254, 100%, 55%)" />
<g stroke="hsl(254, 100%, 40%)"><line x1="335.64763089969847" x2="401.1029576073886" y1="699" y2="699" />
<line x1="335.64763089969847" x2="335.64763089969847" y1="693" y2="705" />
<line x1="401.1029576073886" x2="401.1029576073886" y1="693" y2="705" />
</g>
</g>
<g fill="hsl(275, 100%, 40%)">
<text y="737">Message{callstack:5} > format > stdout</text>
<text y="737" x="373.84999244292624" text-anchor="end">19.6 ms</text>
</g>
<g>
<title>19.6 ms ± 1.1 ms</title>
<rect y="743" rx="5" height="22" width="373.84999244292624" fill="hsl(275, 100%, 80%)" stroke="hsl(275, 100%, 55%)" />
<g stroke="hsl(275, 100%, 40%)"><line x1="353.40914412248367" x2="394.2908407633688" y1="754" y2="754" />
<line x1="353.40914412248367" x2="353.40914412248367" y1="748" y2="760" />
<line x1="394.2908407633688" x2="394.2908407633688" y1="748" y2="760" />
</g>
</g>
<text fill="hsl(296, 100%, 40%)" y="792">Message{callstack:50} > format > stdout 18.1 ms</text>
<g>
<title>18.1 ms ± 457 μs</title>
<rect y="798" rx="5" height="22" width="343.882976455641" fill="hsl(296, 100%, 80%)" stroke="hsl(296, 100%, 55%)" />
<g stroke="hsl(296, 100%, 40%)"><line x1="335.17235197361845" x2="352.5936009376636" y1="809" y2="809" />
<line x1="335.17235197361845" x2="335.17235197361845" y1="803" y2="815" />
<line x1="352.5936009376636" x2="352.5936009376636" y1="803" y2="815" />
</g>
</g>
<g fill="hsl(317, 100%, 40%)">
<text y="847">Message{Time,ThreadId} > format > stdout</text>
<text y="847" x="865.022027967148" text-anchor="end">45.4 ms</text>
</g>
<g>
<title>45.4 ms ± 3.9 ms</title>
<rect y="853" rx="5" height="22" width="865.022027967148" fill="hsl(317, 100%, 80%)" stroke="hsl(317, 100%, 55%)" />
<g stroke="hsl(317, 100%, 40%)"><line x1="790.044055934296" x2="940.0" y1="864" y2="864" />
<line x1="790.044055934296" x2="790.044055934296" y1="858" y2="870" />
<line x1="940.0" x2="940.0" y1="858" y2="870" />
</g>
</g>
<g fill="hsl(338, 100%, 40%)">
<text y="902">Message{Time,ThreadId} > format > ByteString > stdout</text>
<text y="902" x="702.4949929342059" text-anchor="end">36.9 ms</text>
</g>
<g>
<title>36.9 ms ± 3.2 ms</title>
<rect y="908" rx="5" height="22" width="702.4949929342059" fill="hsl(338, 100%, 80%)" stroke="hsl(338, 100%, 55%)" />
<g stroke="hsl(338, 100%, 40%)"><line x1="642.2812761138065" x2="762.7087097546054" y1="919" y2="919" />
<line x1="642.2812761138065" x2="642.2812761138065" y1="913" y2="925" />
<line x1="762.7087097546054" x2="762.7087097546054" y1="913" y2="925" />
</g>
</g>
</g>
</svg>
